<svg xmlns="http://www.w3.org/2000/svg" width="31" height="26" viewBox="0 0 31 26">
    <path fill="#FFF" fill-rule="evenodd" d="M31 3.078a12.41 12.41 0 0 1-3.653 1.033A6.551 6.551 0 0 0 30.144.48a12.5 12.5 0 0 1-4.04 1.593C24.945.797 23.293 0 21.464 0c-3.513 0-6.36 2.939-6.36 6.564 0 .514.056 1.015.164 1.495-5.286-.273-9.972-2.886-13.109-6.858a6.694 6.694 0 0 0-.861 3.3c0 2.277 1.123 4.287 2.83 5.464a6.186 6.186 0 0 1-2.881-.821v.082c0 3.18 2.191 5.833 5.101 6.436a6.183 6.183 0 0 1-2.872.113c.809 2.607 3.158 4.505 5.94 4.558A12.512 12.512 0 0 1 0 23.051 17.599 17.599 0 0 0 9.75 26c11.698 0 18.095-10.002 18.095-18.675 0-.285-.006-.568-.019-.85A13.164 13.164 0 0 0 31 3.079"/>
</svg>
